<svg width="23" height="22" viewBox="0 0 23 22" fill="none" xmlns="http://www.w3.org/2000/svg">
<path d="M8.63637 21C9.16355 21 9.59091 20.5736 9.59091 20.0476C9.59091 19.5216 9.16355 19.0952 8.63637 19.0952C8.10919 19.0952 7.68182 19.5216 7.68182 20.0476C7.68182 20.5736 8.10919 21 8.63637 21Z" stroke="#9B9B9B" stroke-width="2" stroke-linecap="round" stroke-linejoin="round"/>
<path d="M19.1364 21C19.6636 21 20.0909 20.5736 20.0909 20.0476C20.0909 19.5216 19.6636 19.0952 19.1364 19.0952C18.6092 19.0952 18.1818 19.5216 18.1818 20.0476C18.1818 20.5736 18.6092 21 19.1364 21Z" stroke="#9B9B9B" stroke-width="2" stroke-linecap="round" stroke-linejoin="round"/>
<path d="M1 1H4.81818L7.37636 13.7524C7.46365 14.1909 7.70273 14.5847 8.05175 14.865C8.40077 15.1454 8.83748 15.2943 9.28545 15.2857H18.5636C19.0116 15.2943 19.4483 15.1454 19.7973 14.865C20.1464 14.5847 20.3854 14.1909 20.4727 13.7524L22 5.7619H5.77273" stroke="#9B9B9B" stroke-width="2" stroke-linecap="round" stroke-linejoin="round"/>
</svg>
