<svg width="22" height="20" viewBox="0 0 22 20" fill="none" xmlns="http://www.w3.org/2000/svg">
<g clip-path="url(#clip0_60_590)">
<path d="M15.7361 0C17.4336 0 18.8596 0.578231 20.0139 1.73469C21.1682 2.89116 21.7454 4.30272 21.7454 5.96939C21.7454 6.78572 21.5756 7.61055 21.2361 8.44388C20.8966 9.27721 20.5231 10.017 20.1157 10.6633C19.7083 11.3095 19.0208 12.1429 18.0532 13.1633C17.0856 14.1837 16.2708 15.0085 15.6088 15.6378C14.9468 16.267 13.8858 17.2279 12.4259 18.5204L10.8472 19.949L9.26852 18.5714C7.84259 17.2449 6.79012 16.267 6.11111 15.6378C5.4321 15.0085 4.6088 14.1837 3.6412 13.1633C2.67361 12.1429 1.98611 11.3095 1.5787 10.6633C1.1713 10.017 0.806327 9.27721 0.483796 8.44388C0.161265 7.61055 0 6.78572 0 5.96939C0 4.30272 0.57716 2.89116 1.73148 1.73469C2.8858 0.578231 4.29475 0 5.95833 0C7.92747 0 9.5571 0.765306 10.8472 2.29592C12.1373 0.765306 13.767 0 15.7361 0ZM10.9491 16.9388C12.6127 15.4422 13.8264 14.3282 14.5903 13.5969C15.3542 12.8656 16.1944 11.9898 17.1111 10.9694C18.0278 9.94898 18.6644 9.05612 19.0208 8.29082C19.3773 7.52551 19.5556 6.7517 19.5556 5.96939C19.5556 4.88095 19.1906 3.97959 18.4606 3.26531C17.7307 2.55102 16.8225 2.19388 15.7361 2.19388C14.9213 2.19388 14.1489 2.43197 13.419 2.90816C12.689 3.38435 12.1713 3.9966 11.8657 4.7449H9.8287C9.5571 3.9966 9.05633 3.38435 8.32639 2.90816C7.59645 2.43197 6.8071 2.19388 5.95833 2.19388C4.87191 2.19388 3.97222 2.55102 3.25926 3.26531C2.5463 3.97959 2.18981 4.88095 2.18981 5.96939C2.18981 6.7517 2.35957 7.52551 2.69907 8.29082C3.03858 9.05612 3.67515 9.94898 4.6088 10.9694C5.54244 11.9898 6.3912 12.8656 7.15509 13.5969C7.91898 14.3282 9.11574 15.4422 10.7454 16.9388L10.8472 17.0408L10.9491 16.9388Z" fill="#9B9B9B"/>
</g>
<defs>
<clipPath id="clip0_60_590">
<rect width="22" height="20" fill="white"/>
</clipPath>
</defs>
</svg>
