<svg width="32" height="32" viewBox="0 0 32 32" fill="none" xmlns="http://www.w3.org/2000/svg">
<rect x="0.5" y="0.5" width="31" height="31" rx="6.5" fill="white" stroke="#F8F8F8"/>
<g clip-path="url(#clip0_92438_2)">
<path d="M19.0139 10C20.0941 10 21.0015 10.3469 21.7361 11.0408C22.4707 11.7347 22.838 12.5816 22.838 13.5816C22.838 14.0714 22.7299 14.5663 22.5139 15.0663C22.2978 15.5663 22.0602 16.0102 21.8009 16.398C21.5417 16.7857 21.1042 17.2857 20.4884 17.898C19.8727 18.5102 19.3542 19.0051 18.9329 19.3827C18.5116 19.7602 17.8364 20.3367 16.9074 21.1122L15.9028 21.9694L14.8981 21.1429C13.9907 20.3469 13.321 19.7602 12.8889 19.3827C12.4568 19.0051 11.9329 18.5102 11.3171 17.898C10.7014 17.2857 10.2639 16.7857 10.0046 16.398C9.74537 16.0102 9.51312 15.5663 9.30787 15.0663C9.10262 14.5663 9 14.0714 9 13.5816C9 12.5816 9.36728 11.7347 10.1019 11.0408C10.8364 10.3469 11.733 10 12.7917 10C14.0448 10 15.0818 10.4592 15.9028 11.3776C16.7238 10.4592 17.7608 10 19.0139 10ZM15.9676 20.1633C17.0262 19.2653 17.7986 18.5969 18.2847 18.1582C18.7708 17.7194 19.3056 17.1939 19.8889 16.5816C20.4722 15.9694 20.8773 15.4337 21.1042 14.9745C21.331 14.5153 21.4444 14.051 21.4444 13.5816C21.4444 12.9286 21.2122 12.3878 20.7477 11.9592C20.2832 11.5306 19.7052 11.3163 19.0139 11.3163C18.4954 11.3163 18.0039 11.4592 17.5394 11.7449C17.0748 12.0306 16.7454 12.398 16.5509 12.8469H15.2546C15.0818 12.398 14.7631 12.0306 14.2986 11.7449C13.8341 11.4592 13.3318 11.3163 12.7917 11.3163C12.1003 11.3163 11.5278 11.5306 11.0741 11.9592C10.6204 12.3878 10.3935 12.9286 10.3935 13.5816C10.3935 14.051 10.5015 14.5153 10.7176 14.9745C10.9336 15.4337 11.3387 15.9694 11.9329 16.5816C12.527 17.1939 13.0671 17.7194 13.5532 18.1582C14.0394 18.5969 14.8009 19.2653 15.838 20.1633L15.9028 20.2245L15.9676 20.1633Z" fill="#ECECEC"/>
</g>
<defs>
<clipPath id="clip0_92438_2">
<rect width="14" height="12" fill="white" transform="translate(9 10)"/>
</clipPath>
</defs>
</svg>
